<svg width="254" height="199" viewBox="0 0 254 199" fill="none" xmlns="http://www.w3.org/2000/svg">
<path d="M36.645 199C32.8628 198.98 29.1279 198.163 25.6862 196.602C-5.53676 182.7 -0.986616 129.755 2.42278 107.626C8.67762 66.9895 30.8131 5.01477 66.1504 0.89502C91.1825 -2.06405 114.472 31.5954 125.751 51.0718C130.878 42.4369 135.812 34.4014 140.593 27.2716C162.575 -5.50781 184.839 -1.74519 196.195 3.35666C237.133 21.9402 263.921 118.072 250.514 166.756C244.606 188.184 230.635 199.319 212.139 197.367C173.136 193.197 137.889 132.089 133.954 125.125C133.241 123.853 132.787 122.454 132.618 121.007C132.448 119.56 132.567 118.094 132.967 116.693C133.367 115.292 134.04 113.983 134.948 112.841C135.857 111.699 136.982 110.746 138.26 110.036C139.539 109.327 140.945 108.875 142.399 108.707C143.853 108.538 145.326 108.656 146.734 109.054C148.142 109.452 149.457 110.122 150.605 111.026C151.753 111.93 152.71 113.05 153.423 114.322C165.984 136.719 193.67 173.07 214.485 175.302C217.561 175.646 224.739 176.399 228.981 160.902C240.35 119.641 214.793 36.1871 186.915 23.5217C183.685 22.055 173.867 17.6036 159.127 39.5798C149.77 53.5206 139.44 71.645 128.507 90.8279C96.899 146.285 66.8425 199 36.645 199ZM69.4444 22.8713C69.2139 22.8582 68.9828 22.8582 68.7523 22.8713C53.9611 24.5931 31.8769 62.6274 24.4429 110.878C19.316 144.372 23.5457 171.259 34.7864 176.258C38.7854 178.044 48.4625 172.942 63.51 153.3C78.2755 133.939 93.9895 106.465 109.127 79.8845C110.323 77.7757 111.511 75.6924 112.69 73.6347C112.427 73.223 112.188 72.7972 111.972 72.3592C100.065 48.5591 79.993 22.8713 69.4444 22.8713Z" fill="#76D0FE"/>
</svg>
