<svg width="56" height="60" viewBox="0 0 56 60" fill="none" xmlns="http://www.w3.org/2000/svg">
    <path d="M0 13.8607H27.2032C35.3854 13.8607 42.0209 7.65374 42.0209 0H35.8629H14.8177C6.63553 0.00381733 0 6.20697 0 13.8607Z" fill="#3E5F58" />
    <path d="M14.8177 36.7303H55.7042C55.7042 29.0765 49.0686 22.8696 40.8864 22.8696H0C0 30.5233 6.63553 36.7303 14.8177 36.7303Z" fill="#3E5F58" />
    <path d="M17.9642 59.5999H31.0597V55.9124C31.0597 50.2933 21.4655 45.7392 15.4585 45.7392H3.14648C3.14648 53.3929 9.78199 59.5999 17.9642 59.5999Z" fill="#3E5F58" />
    <path d="M47.4484 59.6266C51.5278 59.6266 54.8348 56.5332 54.8348 52.7173C54.8348 48.9014 51.5278 45.8079 47.4484 45.8079C43.369 45.8079 40.062 48.9014 40.062 52.7173C40.062 56.5332 43.369 59.6266 47.4484 59.6266Z" fill="#F6BD61" />
</svg>
    